<?xml version="1.0" standalone="no"?>
<!DOCTYPE svg PUBLIC "-//W3C//DTD SVG 20010904//EN"
 "http://www.w3.org/TR/2001/REC-SVG-20010904/DTD/svg10.dtd">
<svg version="1.0" xmlns="http://www.w3.org/2000/svg"
 width="875.000000pt" height="875.000000pt" viewBox="0 0 875.000000 875.000000"
 preserveAspectRatio="xMidYMid meet">
<metadata>
Created by potrace 1.11, written by Peter Selinger 2001-2013
</metadata>
<g transform="translate(0.000000,875.000000) scale(0.100000,-0.100000)"
fill="#000000" stroke="none">
<path d="M4138 8745 c-1 -1 -46 -5 -98 -9 -116 -8 -168 -13 -290 -32 -52 -8
-112 -17 -135 -20 -148 -18 -483 -108 -715 -191 -498 -179 -924 -424 -1345
-774 -107 -89 -408 -386 -490 -484 -311 -369 -481 -639 -695 -1100 -75 -161
-184 -475 -235 -676 -40 -157 -89 -416 -100 -534 -3 -33 -8 -71 -11 -85 -26
-150 -25 -708 1 -940 7 -57 17 -134 20 -155 2 -11 7 -40 10 -65 20 -143 91
-444 141 -604 186 -585 484 -1119 883 -1576 97 -112 295 -311 390 -393 46 -40
91 -79 100 -88 9 -8 48 -39 86 -69 39 -30 72 -57 75 -60 8 -10 262 -186 296
-206 18 -11 82 -49 143 -86 215 -129 532 -275 796 -365 94 -32 292 -92 325
-98 8 -2 33 -8 55 -13 52 -14 232 -50 281 -57 22 -3 62 -10 89 -15 28 -5 75
-12 106 -15 31 -3 65 -7 75 -9 157 -30 750 -28 991 4 43 6 96 13 118 16 22 3
52 7 68 10 15 2 42 6 60 9 28 5 69 13 152 29 74 15 147 34 370 95 136 38 437
157 623 247 456 221 835 493 1202 863 271 272 459 514 659 849 89 150 212 392
271 537 18 44 37 89 41 100 31 71 96 265 129 380 31 110 42 152 46 175 3 14 7
33 10 42 9 29 30 134 50 248 20 116 22 127 28 190 3 30 8 65 10 76 28 139 28
752 1 954 -3 19 -7 53 -10 75 -4 40 -32 220 -40 260 -3 18 -20 99 -31 150 -45
217 -161 569 -261 795 -25 57 -162 332 -181 365 -9 17 -33 57 -51 90 -202 355
-560 790 -876 1063 -55 48 -102 89 -105 92 -12 14 -192 151 -255 195 -38 27
-74 53 -80 58 -5 4 -46 31 -90 59 -322 207 -696 383 -1055 497 -103 32 -354
98 -409 107 -18 3 -43 8 -55 10 -54 12 -176 33 -226 39 -30 3 -62 8 -70 10 -8
2 -49 7 -90 11 -41 3 -93 8 -115 11 -48 5 -582 13 -587 8z"/>
</g>
</svg>
